<svg xmlns="http://www.w3.org/2000/svg" viewBox="0 0 1100 520" role="img" aria-labelledby="title desc">
  <title id="title">Arquitetura Colmeia Urbana</title>
  <desc id="desc">Cen�rio 1: interface, API backend com SQLite e API externa Open-Meteo</desc>
  <rect width="1100" height="520" fill="#fbf6ea"/>
  <text x="40" y="48" font-family="Georgia, serif" font-size="28" fill="#1c2416">Colmeia Urbana  Cen�rio 1</text>
  <text x="40" y="78" font-family="Arial, sans-serif" font-size="16" fill="#6d6758">Interface + API pr�pria + componente externo</text>

  <rect x="80" y="130" width="260" height="90" rx="16" fill="#fffaf0" stroke="#c4780a" stroke-width="2"/>
  <text x="210" y="172" text-anchor="middle" font-family="Arial, sans-serif" font-size="18" fill="#1c2416">Interface (Front-End)</text>
  <text x="210" y="196" text-anchor="middle" font-family="Arial, sans-serif" font-size="13" fill="#6d6758">React + Nginx</text>

  <rect x="430" y="130" width="260" height="90" rx="16" fill="#fffaf0" stroke="#c4780a" stroke-width="2"/>
  <text x="560" y="172" text-anchor="middle" font-family="Arial, sans-serif" font-size="18" fill="#1c2416">API (Back-End)</text>
  <text x="560" y="196" text-anchor="middle" font-family="Arial, sans-serif" font-size="13" fill="#6d6758">FastAPI + Swagger</text>

  <rect x="800" y="145" width="70" height="60" rx="10" fill="#d9e8f5" stroke="#3d6f91" stroke-width="2"/>
  <text x="835" y="180" text-anchor="middle" font-family="Arial, sans-serif" font-size="12" fill="#1c2416">SQLite</text>

  <rect x="80" y="360" width="260" height="90" rx="16" fill="#d9e8f5" stroke="#3d6f91" stroke-width="2"/>
  <text x="210" y="400" text-anchor="middle" font-family="Arial, sans-serif" font-size="18" fill="#1c2416">API Externa</text>
  <text x="210" y="424" text-anchor="middle" font-family="Arial, sans-serif" font-size="13" fill="#1c2416">Open-Meteo Forecast</text>

  <defs>
    <marker id="arrow" viewBox="0 0 10 10" refX="9" refY="5" markerWidth="8" markerHeight="8" orient="auto-start-reverse">
      <path d="M 0 0 L 10 5 L 0 10 z" fill="#243322"/>
    </marker>
  </defs>

  <line x1="340" y1="175" x2="430" y2="175" stroke="#243322" stroke-width="2" marker-start="url(#arrow)" marker-end="url(#arrow)"/>
  <text x="385" y="160" text-anchor="middle" font-family="Arial, sans-serif" font-size="12" fill="#243322">REST</text>
  <line x1="690" y1="175" x2="800" y2="175" stroke="#243322" stroke-width="2" marker-end="url(#arrow)"/>
  <line x1="210" y1="220" x2="210" y2="360" stroke="#243322" stroke-width="2" marker-end="url(#arrow)"/>

  <g font-family="Arial, sans-serif" font-size="13" fill="#1c2416">
    <text x="900" y="300">Legenda</text>
    <line x1="900" y1="320" x2="940" y2="320" stroke="#243322" stroke-width="2" marker-end="url(#arrow)"/>
    <text x="950" y="324">comunica��o obrigat�ria</text>
    <rect x="900" y="345" width="18" height="14" fill="#fffaf0" stroke="#c4780a"/>
    <text x="926" y="357">m�dulo desenvolvido</text>
    <rect x="900" y="375" width="18" height="14" fill="#d9e8f5" stroke="#3d6f91"/>
    <text x="926" y="387">m�dulo externo consumido</text>
  </g>
</svg>
